<?xml version="1.0" encoding="UTF-8"?>
<svg width="24px" height="24px" viewBox="0 0 24 24" version="1.1" xmlns="http://www.w3.org/2000/svg" xmlns:xlink="http://www.w3.org/1999/xlink">
    <!-- Generator: Sketch 61 (89581) - https://sketch.com -->
    <title>Arrow</title>
    <desc>Created with Sketch.</desc>
    <defs>
        <path d="M6.66633333,12.6666667 C6.51566667,12.6666667 6.36433333,12.616 6.23966667,12.512 C5.957,12.2766667 5.919,11.856 6.15433333,11.5733333 L9.13833333,7.99266667 L6.26166667,4.418 C6.031,4.13133333 6.07633333,3.71133333 6.363,3.48066667 C6.65033333,3.25 7.06966667,3.29533333 7.301,3.582 L10.5196667,7.582 C10.7183333,7.82933333 10.7156667,8.18266667 10.5123333,8.42666667 L7.179,12.4266667 C7.047,12.5846667 6.85766667,12.6666667 6.66633333,12.6666667" id="path-1"></path>
    </defs>
    <g id="Hotel_User_part_UI" stroke="none" stroke-width="1" fill="none" fill-rule="evenodd">
        <g id="properties_details_02" transform="translate(-705.000000, -356.000000)">
            <g id="Header_top" transform="translate(165.000000, 126.000000)">
                <g id="Group-3-Copy" transform="translate(18.000000, 230.000000)">
                    <g id="Arrow" transform="translate(522.000000, 0.000000)">
                        <circle id="Oval" fill="#FFFFFF" cx="12" cy="12" r="12"></circle>
                        <g id="arrow-ios-right" transform="translate(4.000000, 4.000000)">
                            <mask id="mask-2" fill="white">
                                <use xlink:href="#path-1"></use>
                            </mask>
                            <use id="🎨-Icon-Сolor" fill="#056998" fill-rule="evenodd" xlink:href="#path-1"></use>
                        </g>
                    </g>
                </g>
            </g>
        </g>
    </g>
</svg>